<?xml version="1.0" standalone="no"?>
<!DOCTYPE svg PUBLIC "-//W3C//DTD SVG 20010904//EN"
 "http://www.w3.org/TR/2001/REC-SVG-20010904/DTD/svg10.dtd">
<svg version="1.0" xmlns="http://www.w3.org/2000/svg"
 width="720.000000pt" height="810.000000pt" viewBox="0 0 720.000000 810.000000"
 preserveAspectRatio="xMidYMid meet">

<g transform="translate(0.000000,810.000000) scale(0.100000,-0.100000)"
fill="#000000" stroke="none">
<path d="M6334 8064 c-6 -30 -3 -40 19 -61 l25 -25 411 -4 411 -4 0 65 0 65
-430 0 -429 0 -7 -36z"/>
<path d="M6351 7667 c-10 -13 -14 -104 -17 -439 -2 -233 -6 -436 -9 -453 -2
-16 -5 -87 -6 -157 -1 -70 -5 -125 -9 -123 -5 3 -6 -4 -3 -15 3 -12 0 -20 -7
-20 -7 0 -10 -7 -6 -16 3 -8 2 -12 -4 -9 -6 3 -10 0 -10 -9 0 -8 4 -16 10 -18
5 -1 6 -9 1 -16 -11 -18 -62 23 -54 43 4 11 -2 15 -21 15 -14 0 -26 4 -26 10
0 15 -68 40 -111 40 -21 0 -41 5 -44 10 -3 6 -15 10 -25 10 -12 0 -25 13 -36
35 -12 26 -24 36 -50 41 -33 6 -84 2 -136 -11 -42 -11 -77 1 -71 23 3 12 -1
19 -12 19 -10 0 -15 -7 -13 -20 4 -28 -18 -33 -32 -8 -11 21 -50 29 -50 11 0
-5 -19 -10 -43 -10 -24 0 -62 -9 -84 -20 -44 -21 -72 -24 -141 -14 -32 5 -56
1 -93 -15 -27 -12 -58 -19 -69 -16 -11 4 -28 -3 -44 -17 -14 -13 -36 -32 -49
-43 -13 -11 -51 -26 -85 -34 -48 -10 -62 -18 -62 -32 0 -22 21 -71 35 -81 6
-5 5 -12 -5 -18 -8 -5 -11 -10 -5 -10 5 0 4 -5 -3 -12 -14 -14 -16 -32 -3 -23
6 3 9 -4 8 -16 -1 -11 -11 -25 -22 -31 -11 -6 -24 -17 -28 -24 -13 -22 -29
-17 -18 5 13 23 -6 33 -48 25 -28 -6 -84 16 -141 56 -14 9 -48 20 -77 24 -44
6 -60 2 -117 -24 -37 -16 -71 -30 -75 -30 -5 0 -11 -6 -14 -12 -2 -7 -15 -13
-28 -14 -82 -2 -81 -2 -79 -36 3 -49 2 -53 -21 -79 l-21 -24 -15 23 c-9 12
-22 22 -29 22 -8 0 -14 5 -14 10 0 6 -13 10 -30 10 -16 0 -30 5 -30 10 0 17
-38 11 -44 -7 -3 -10 -6 -49 -7 -88 -1 -69 12 -120 39 -140 18 -15 4 -73 -22
-90 -16 -11 -61 -14 -186 -13 -91 0 -183 -3 -204 -7 -22 -4 -61 -3 -90 4 -33
7 -82 8 -139 3 -48 -4 -93 -5 -99 -1 -7 4 -9 22 -5 45 11 73 27 159 37 209 20
97 -19 315 -65 363 -10 11 -9 23 5 63 10 27 14 49 9 49 -14 0 -33 43 -31 73 6
77 -105 191 -256 263 -93 44 -143 69 -244 121 -36 18 -52 21 -66 14 -16 -8
-27 -1 -68 40 -54 55 -69 59 -105 27 -13 -12 -35 -31 -48 -42 l-24 -21 12 22
c10 20 9 22 -6 17 -17 -5 -17 -5 0 9 24 20 21 24 -15 19 -29 -4 -31 -3 -20 10
28 34 -45 47 -86 15 -7 -6 -34 -20 -61 -32 -62 -29 -145 -89 -165 -120 -9 -14
-14 -25 -10 -25 3 0 -1 -11 -9 -24 -9 -13 -19 -48 -22 -77 -19 -160 -21 -174
-29 -157 -11 24 -26 13 -26 -18 0 -40 -20 -17 -21 24 -1 20 -3 29 -6 20 -2
-10 -9 -18 -14 -18 -5 0 -9 8 -9 18 -1 11 -7 5 -18 -16 -19 -34 -32 -33 -32 2
0 16 -2 18 -9 7 -6 -9 -19 -12 -42 -7 -19 3 -45 8 -59 10 -14 1 -29 4 -33 4
-5 1 -6 15 -2 31 4 20 2 30 -9 34 -9 4 -18 1 -22 -4 -3 -6 -14 -9 -24 -6 -13
3 -18 -1 -18 -17 -1 -40 -11 -108 -16 -113 -10 -11 23 -33 40 -26 15 5 16 2
11 -26 -6 -29 -5 -31 14 -20 16 8 24 7 38 -5 10 -9 25 -16 35 -16 13 0 15 -4
7 -19 -6 -10 -7 -22 -3 -26 4 -5 1 -5 -5 -1 -10 5 -13 -4 -13 -36 0 -31 3 -39
10 -28 6 10 10 11 10 3 0 -25 18 -13 35 23 14 30 15 40 5 60 -11 19 -10 26 0
39 12 14 10 16 -12 10 -15 -4 -29 -2 -32 4 -4 6 -15 11 -25 11 -13 0 -20 9
-24 33 -8 56 39 64 99 17 30 -25 46 -31 83 -30 25 1 62 -3 81 -9 19 -6 54 -11
77 -11 24 0 43 -4 43 -9 0 -5 23 -12 52 -16 36 -5 57 -14 70 -30 15 -19 34
-24 128 -36 l112 -13 39 -44 c34 -39 39 -51 39 -93 0 -26 5 -51 10 -54 5 -3
10 -15 10 -26 0 -16 5 -18 24 -13 26 6 48 -19 39 -44 -3 -7 5 -24 17 -37 19
-20 21 -27 10 -40 -7 -8 -24 -15 -39 -15 -34 0 -47 -10 -54 -41 -5 -20 -18
-29 -61 -44 -41 -14 -58 -26 -66 -45 -10 -23 -22 -29 -113 -49 -56 -13 -109
-29 -117 -36 -8 -7 -20 -14 -27 -16 -12 -4 -107 -93 -132 -122 -11 -14 -11
-20 -1 -32 16 -19 30 -19 30 -1 0 13 41 26 84 26 19 0 18 -2 -9 -25 -16 -14
-40 -28 -52 -31 -30 -8 -29 -22 3 -34 17 -7 38 -7 63 0 49 13 56 13 41 -5 -10
-12 -10 -15 0 -15 7 0 10 -6 7 -12 -3 -9 7 -13 32 -14 52 -2 94 -14 108 -31
10 -13 15 -12 43 2 29 15 34 15 48 1 14 -14 11 -20 -31 -62 -44 -44 -49 -46
-87 -40 -22 3 -40 2 -40 -3 0 -4 -18 -40 -40 -78 -39 -67 -41 -73 -41 -159 -1
-112 3 -125 68 -254 29 -57 53 -110 53 -117 0 -7 13 -26 30 -43 36 -37 38 -47
7 -47 -21 0 -47 33 -47 60 0 5 -14 25 -30 44 -17 18 -41 56 -55 84 -14 28 -46
76 -70 107 -27 35 -48 76 -56 107 -16 68 -29 79 -29 24 0 -53 26 -147 46 -170
8 -8 14 -21 14 -27 0 -6 9 -27 21 -46 19 -33 20 -37 4 -52 -15 -16 -17 -15
-31 5 -9 12 -20 19 -25 15 -6 -3 -17 2 -24 12 -14 18 -14 18 -15 -3 0 -13 -6
-23 -14 -23 -16 0 -29 -27 -17 -35 5 -2 11 -15 14 -27 5 -20 4 -21 -6 -7 -43
56 -58 71 -63 66 -3 -3 9 -25 27 -48 136 -168 312 -315 461 -383 99 -45 105
-53 80 -110 -11 -24 -18 -47 -15 -49 6 -7 -47 -59 -76 -74 -31 -17 -56 -16
-121 6 -55 18 -78 19 -50 0 25 -15 138 -42 230 -53 8 -1 40 -10 71 -20 l57
-18 78 38 c63 32 90 39 139 40 66 2 123 24 131 52 24 78 60 113 41 41 -12 -48
-39 -80 -100 -119 -47 -30 -182 -80 -216 -80 -25 0 -37 -18 -16 -26 8 -4 39 4
68 16 189 82 287 101 255 50 -16 -25 -3 -48 29 -56 15 -3 49 -14 76 -25 43
-18 63 -19 226 -14 l178 7 8 -29 c4 -15 9 -46 11 -68 3 -22 9 -67 14 -100 6
-33 10 -67 10 -75 0 -13 -1 -13 -10 0 -9 13 -10 13 -11 0 -1 -8 -1 -20 0 -27
1 -6 -3 -14 -9 -18 -5 -3 -10 -11 -10 -17 0 -6 13 7 28 28 42 56 128 134 150
134 19 0 42 -18 42 -33 0 -4 -5 -5 -12 -1 -7 5 -9 2 -5 -8 6 -17 -41 -78 -61
-78 -6 0 -13 -13 -17 -30 -4 -16 -11 -32 -16 -35 -26 -17 -149 -229 -178 -310
-12 -33 -28 -73 -36 -90 -22 -48 -28 -82 -16 -90 19 -11 64 48 90 116 43 116
91 195 177 293 79 89 87 96 100 79 7 -10 14 -21 14 -26 0 -14 -110 -178 -123
-183 -8 -3 -14 -21 -15 -42 -1 -20 -7 -41 -15 -47 -7 -5 -39 -63 -71 -128 -33
-65 -63 -120 -67 -123 -5 -3 -9 -14 -9 -25 0 -16 -5 -18 -24 -13 -19 4 -27 0
-36 -17 -11 -19 -10 -21 5 -15 14 5 16 2 10 -16 -4 -13 -9 -35 -12 -50 -3 -16
-9 -28 -14 -28 -21 0 -6 -40 24 -65 17 -15 52 -46 77 -69 25 -24 55 -48 68
-55 12 -6 22 -18 22 -25 0 -16 18 -33 40 -38 8 -2 23 -16 33 -33 35 -55 79
-95 108 -95 28 0 45 -28 56 -89 2 -13 13 -35 23 -50 13 -17 26 -69 40 -156 11
-71 25 -148 31 -170 35 -132 50 -228 37 -236 -6 -4 -12 -31 -12 -60 -1 -43 -5
-54 -19 -57 -24 -5 -30 -41 -19 -114 6 -36 9 -81 8 -100 -1 -20 3 -34 7 -31 5
3 6 -4 2 -16 -6 -20 -4 -20 22 -10 15 6 108 31 206 55 166 41 207 46 242 26
11 -7 75 -4 117 4 l26 5 -72 122 c-40 67 -108 192 -152 277 l-80 155 8 300 c7
241 12 321 30 406 l21 107 35 5 c19 4 42 13 52 22 16 15 20 14 51 -4 46 -28
59 -26 59 8 0 20 -8 34 -27 47 -16 10 -31 17 -35 16 -5 -1 -8 12 -8 29 l0 32
21 -27 c11 -14 29 -26 39 -26 24 0 35 33 20 60 -9 16 -7 24 6 37 12 12 14 26
10 53 -5 35 -2 41 44 84 27 25 56 46 64 46 8 0 18 5 22 11 4 8 -3 9 -25 4 -17
-4 -31 -3 -31 0 0 9 72 79 91 89 8 4 30 15 49 26 47 24 50 8 6 -37 -19 -20
-33 -39 -31 -42 7 -6 57 21 76 41 9 10 21 18 28 18 6 0 19 8 29 18 18 18 111
52 143 52 24 0 25 -27 2 -33 -15 -4 -15 -5 2 -6 11 0 30 10 42 23 16 16 51 31
114 46 137 34 222 66 230 87 20 49 -1 250 -41 390 -11 40 -20 75 -20 77 0 2
20 11 45 20 47 15 95 9 95 -14 0 -5 11 -20 25 -32 29 -25 32 -43 10 -56 -12
-6 -16 -37 -20 -153 -3 -79 -6 -165 -7 -192 -4 -56 5 -61 90 -52 114 12 104
-5 98 158 -7 202 -6 231 5 242 5 5 9 -3 9 -22 0 -17 4 -33 8 -35 11 -4 60
-125 68 -168 4 -17 11 -33 15 -36 5 -3 6 -16 3 -29 -3 -12 -1 -26 5 -29 5 -4
8 -13 4 -21 -3 -8 -1 -15 5 -15 6 0 13 6 15 13 3 7 6 5 6 -5 1 -16 14 -18 119
-18 l117 0 -4 167 c-2 94 2 204 8 248 6 44 13 106 16 137 2 32 6 62 9 67 4 5
1 32 -6 59 -18 79 17 142 81 144 24 1 32 7 40 29 15 43 53 63 106 55 42 -7 45
-6 45 16 1 64 104 107 131 56 7 -13 17 -27 24 -33 20 -17 91 -109 105 -134 8
-15 10 -39 5 -68 -13 -87 -27 -94 -65 -33 -14 22 -27 40 -30 40 -3 0 -34 27
-70 59 -36 33 -67 58 -69 55 -2 -2 13 -22 33 -45 35 -38 37 -42 22 -62 -9 -12
-19 -29 -22 -37 -26 -73 -54 -88 -79 -41 -26 52 -47 55 -80 14 -28 -35 -29
-43 -41 -207 -7 -94 -16 -192 -20 -218 -4 -32 -3 -48 4 -48 25 0 52 -68 58
-146 4 -44 12 -93 20 -111 7 -17 15 -58 19 -90 4 -32 15 -96 25 -143 18 -83
43 -314 56 -517 4 -57 11 -103 15 -103 5 0 6 -6 3 -14 -3 -8 -1 -17 4 -20 5
-3 10 -47 11 -98 1 -51 6 -110 12 -132 6 -21 8 -50 4 -64 -3 -14 -8 -62 -11
-106 -2 -45 -9 -106 -15 -136 -14 -70 -6 -582 11 -700 6 -47 18 -97 26 -112 8
-14 14 -32 14 -39 0 -7 9 -22 19 -33 18 -20 19 -25 6 -91 -14 -74 -10 -85 28
-85 10 0 15 -4 12 -10 -3 -5 -20 -7 -38 -5 l-32 5 30 -14 c35 -18 17 -20 -40
-5 -22 5 -56 12 -76 14 -19 2 -71 15 -115 29 -43 13 -142 41 -219 61 -77 21
-210 57 -295 80 -85 24 -164 45 -175 48 -19 4 -18 5 2 6 12 0 48 -6 82 -14
l60 -16 73 35 c77 36 262 94 338 105 l45 6 1 75 c1 41 4 134 8 206 4 72 4 137
1 145 -4 12 -41 14 -208 12 -208 -2 -252 -7 -242 -23 3 -6 1 -10 -4 -10 -6 0
-11 -9 -11 -20 0 -12 -7 -32 -16 -45 -15 -23 -15 -24 18 -30 19 -4 92 -2 163
3 96 6 141 6 175 -3 l45 -13 -40 0 c-40 0 -342 -30 -381 -38 -24 -4 -67 -56
-79 -93 -7 -22 -5 -23 34 -19 23 2 41 2 41 1 0 -6 -86 -43 -101 -43 -23 0 -52
-47 -56 -93 -4 -37 -4 -37 28 -32 18 3 53 14 78 25 25 11 73 26 107 34 34 9
78 23 98 31 21 9 67 18 104 20 56 3 60 2 26 -5 -22 -5 -61 -17 -85 -28 -66
-28 -141 -52 -166 -52 -13 0 -23 -4 -23 -9 0 -8 -125 -50 -195 -66 l-30 -7 38
-13 c40 -14 58 -25 40 -25 -6 0 -29 6 -51 14 -22 8 -53 17 -69 20 -15 3 -55
12 -88 20 -33 8 -82 17 -110 20 -59 6 -96 15 -112 28 -6 5 -49 11 -95 14 -55
3 -95 11 -118 23 -150 80 -155 82 -188 77 -18 -2 -46 -15 -63 -26 -32 -23 -50
-21 -30 4 10 12 9 15 -8 13 -12 -1 -21 -5 -21 -9 0 -4 -12 -3 -26 2 -17 7 -32
7 -45 0 -15 -9 -19 -7 -19 6 0 14 -3 14 -15 4 -9 -7 -14 -19 -11 -27 3 -7 0
-13 -7 -13 -7 0 6 -9 28 -18 33 -15 36 -19 21 -25 -10 -4 -25 -2 -33 5 -12 10
-18 9 -29 -7 -9 -12 -14 -14 -14 -5 0 11 -30 12 -162 7 -182 -7 -275 -21 -330
-49 -42 -20 -51 -41 -15 -34 25 6 56 9 75 7 17 -1 15 -21 -2 -21 -16 0 -32
-38 -21 -48 4 -4 10 -1 12 6 3 7 14 17 25 23 18 9 18 8 9 -10 -15 -28 -14 -33
8 -26 16 5 18 2 14 -17 -6 -22 -6 -23 14 -5 16 14 22 15 27 5 5 -10 7 -10 12
0 8 18 74 16 74 -3 0 -18 20 -20 21 -2 0 6 4 2 9 -10 13 -33 77 -27 310 26 52
13 118 31 147 41 29 11 61 16 75 12 20 -5 17 -7 -17 -13 -22 -4 -152 -36 -289
-72 -137 -37 -258 -68 -270 -69 -12 -2 -27 -9 -34 -16 -7 -6 -20 -12 -28 -12
-8 0 -14 -5 -14 -11 0 -8 -5 -7 -16 2 -14 11 -18 11 -29 -4 -10 -14 -14 -15
-18 -5 -4 10 -9 8 -21 -5 -12 -16 -18 -17 -37 -7 -20 11 -21 10 -16 -12 8 -31
-28 -58 -46 -35 -7 8 -23 18 -37 21 -25 6 -25 6 -2 -5 25 -14 32 -52 7 -43
-13 5 -12 -1 4 -38 11 -25 17 -56 14 -71 -6 -33 -20 -36 -19 -5 1 14 -6 24
-16 26 -14 3 -17 -3 -16 -25 1 -15 7 -31 13 -35 7 -5 6 -8 -2 -8 -7 0 -9 -13
-6 -39 3 -21 0 -48 -6 -60 -10 -19 -9 -21 11 -21 21 -1 22 -2 6 -14 -10 -7
-18 -18 -18 -24 0 -6 -7 -9 -15 -6 -9 4 -17 -1 -21 -12 -3 -11 -10 -27 -16
-38 -6 -12 -6 -22 1 -29 14 -14 14 -40 1 -32 -6 3 -10 1 -10 -5 0 -6 -7 -18
-15 -27 -8 -8 -13 -18 -11 -21 2 -4 18 -37 35 -74 17 -37 35 -69 41 -73 5 -3
10 -13 10 -21 0 -8 18 -39 40 -69 22 -30 37 -55 32 -55 -8 0 -49 58 -135 193
-21 31 -42 57 -48 57 -5 0 -7 4 -4 10 3 5 0 7 -8 5 -7 -3 -22 3 -32 15 -10 11
-24 20 -30 20 -7 0 -27 14 -45 30 -18 17 -35 29 -37 27 -2 -2 -6 -21 -8 -41
-6 -44 9 -74 78 -161 26 -33 52 -75 58 -93 7 -22 16 -32 25 -28 8 3 33 -12 56
-35 35 -32 38 -37 15 -25 -19 9 -39 11 -61 6 -30 -7 -35 -4 -51 24 -22 37 -33
46 -60 46 -26 0 -121 118 -136 170 -7 22 -22 43 -35 51 -13 7 -26 19 -29 28
-3 9 -22 35 -44 58 -21 24 -41 53 -44 65 -5 21 -5 21 7 5 12 -16 15 -15 50 8
21 14 34 20 31 13 -4 -7 0 -5 8 4 8 10 18 14 22 10 4 -4 5 8 1 27 -3 18 -6 40
-6 47 0 18 -59 12 -71 -7 -7 -11 -9 -10 -9 5 0 14 -5 17 -22 12 -13 -3 -28 -6
-35 -6 -9 0 -8 -10 3 -36 8 -20 13 -38 10 -41 -3 -3 -12 12 -21 33 -8 22 -28
49 -43 62 -26 22 -26 24 -8 35 10 7 30 22 44 34 14 13 30 23 36 24 6 0 18 2
26 4 8 2 35 8 60 12 41 8 45 12 60 53 9 25 37 84 63 131 l47 86 -48 -9 c-69
-12 -67 -12 -127 2 -38 9 -63 22 -77 39 l-20 26 24 3 c29 5 50 22 44 37 -9 26
12 36 75 37 38 1 79 -6 101 -15 43 -18 53 -12 57 38 1 21 41 19 57 -2 11 -15
9 -22 -9 -43 l-22 -25 28 25 c15 13 25 30 22 38 -4 10 0 12 11 8 10 -4 33 4
55 19 21 14 47 25 57 25 26 0 58 25 71 59 15 34 11 77 -6 74 -7 -2 -20 8 -30
21 -12 15 -35 26 -61 31 -23 4 -42 9 -42 12 0 11 64 143 69 143 11 0 28 -15
39 -35 10 -17 11 -17 12 -3 0 9 -5 20 -10 23 -6 3 -7 18 -4 32 5 20 4 24 -6
18 -10 -6 -12 -1 -7 21 6 30 -48 303 -83 424 l-20 65 -112 18 c-263 42 -394
54 -400 35 -4 -12 -48 6 -48 21 0 4 -24 6 -53 3 -49 -4 -56 -2 -75 23 -12 15
-19 31 -16 36 3 6 49 7 108 3 65 -4 105 -3 109 3 4 6 -4 8 -21 5 -15 -3 -24
-1 -20 3 3 4 -2 27 -13 52 -10 24 -19 53 -19 62 0 10 -12 23 -27 30 -16 8 -35
17 -43 21 -20 10 -25 37 -9 56 7 9 34 26 60 39 49 25 72 55 41 55 -9 0 -48
-13 -87 -29 -57 -23 -73 -26 -83 -16 -11 10 -9 21 12 64 29 56 27 91 -6 127
-10 12 -20 31 -21 42 0 11 -4 19 -8 16 -9 -5 -59 15 -81 34 -20 17 -21 14 -18
-42 1 -30 -2 -38 -12 -33 -8 3 -20 -3 -26 -14 -10 -15 -8 -20 7 -29 11 -5 26
-10 34 -10 9 0 17 -14 22 -36 3 -20 10 -44 15 -53 44 -78 60 -144 64 -263 3
-68 9 -143 15 -168 6 -25 10 -79 10 -120 0 -69 -1 -73 -15 -55 -14 19 -15 19
-20 -3 -7 -26 -6 -26 -47 -9 -19 8 -40 11 -52 6 -34 -13 -44 -10 -51 18 -6 24
-8 25 -20 9 -15 -21 -28 -8 -33 34 -1 13 -54 13 -67 0 -7 -7 -33 -2 -80 16
-79 30 -170 52 -264 64 -51 6 -69 13 -87 34 -14 17 -32 26 -51 26 -16 0 -51
12 -78 26 -33 17 -68 27 -107 29 -55 3 -95 15 -49 15 29 0 28 18 0 22 -13 2
-29 15 -36 31 -13 27 -42 38 -42 16 0 -8 -4 -8 -13 -1 -7 6 -49 13 -92 15 -91
4 -104 7 -123 25 -13 12 -61 7 -72 -8 -9 -13 -35 -17 -62 -9 -27 7 -39 -3 -18
-16 5 -3 10 -10 10 -16 0 -16 -38 14 -44 35 -3 11 -8 17 -12 13 -13 -13 -46
16 -65 58 -10 23 -26 46 -35 49 -24 9 -70 123 -81 201 -6 39 -25 108 -43 155
-62 162 -92 235 -117 290 -31 65 -43 114 -50 193 -3 31 -8 55 -13 52 -12 -8
-40 29 -60 81 -16 42 -19 45 -20 21 0 -17 -4 -26 -11 -22 -6 4 -9 31 -7 63 1
32 -2 63 -6 71 -6 10 -5 12 2 7 16 -9 15 -5 -4 32 -29 60 -36 49 -29 -42 4
-48 3 -86 -1 -86 -10 0 -49 80 -59 121 -7 30 -61 99 -77 99 -6 0 -3 -9 7 -20
10 -11 15 -20 10 -20 -4 0 -3 -6 3 -12 6 -7 21 -39 35 -70 30 -68 15 -64 -45
11 -77 95 -80 98 -51 46 29 -53 61 -92 106 -134 31 -28 61 -74 72 -109 6 -22
6 -22 -20 3 -46 47 -57 26 -40 -80 l8 -50 -32 32 c-31 33 -39 53 -21 53 24 0
-7 61 -57 113 -25 26 -28 2 -4 -29 12 -15 21 -36 21 -47 0 -19 -3 -18 -33 11
-18 18 -41 32 -50 32 -24 0 -21 -33 5 -56 26 -23 78 -135 78 -166 0 -18 -5
-14 -19 17 -17 38 -125 165 -140 165 -3 0 -33 25 -65 56 -37 34 -62 52 -68 46
-12 -12 14 -66 50 -104 28 -30 23 -49 -8 -30 -32 20 -150 12 -150 -11 0 -5 11
-25 26 -44 31 -40 19 -43 -19 -4 -15 15 -44 37 -65 47 -20 10 -39 22 -40 27
-2 4 -8 7 -13 7 -6 0 -6 -7 -1 -17 5 -10 7 -24 5 -30 -6 -17 -78 -16 -92 1 -6
7 -26 16 -43 20 -17 3 -46 17 -64 31 -18 14 -35 25 -38 25 -6 0 13 -36 52
-100 12 -19 22 -43 22 -53 0 -17 -1 -17 -28 1 -28 20 -80 20 -93 0 -4 -6 -19
3 -34 18 -27 27 -27 28 -15 88 26 135 36 159 85 210 68 69 149 123 198 131 59
10 106 36 170 95 30 27 60 50 66 50 6 0 30 13 52 30 42 30 97 49 204 70 71 14
76 18 125 91 45 65 113 113 182 128 40 9 68 7 173 -14 136 -27 158 -36 253
-102 l62 -43 50 16 c48 16 51 15 92 -5 l43 -22 42 48 c27 30 54 77 74 128 37
95 61 125 102 125 l30 0 -6 103 c-4 56 -8 111 -10 122 -2 11 -7 46 -11 78 -10
68 -36 107 -74 107 -17 1 -43 15 -69 39 -35 32 -43 47 -54 100 -10 48 -11 66
-1 81 6 11 9 34 6 52 l-6 33 16 -25 c8 -14 20 -36 26 -50 15 -38 42 -83 57
-99 23 -22 6 34 -35 117 l-36 72 -46 2 c-25 1 -53 2 -62 1 -10 0 -18 3 -18 7
0 13 -90 104 -106 106 -8 1 -18 5 -21 8 -3 3 -12 -2 -21 -10 -9 -10 -29 -14
-51 -13 -39 3 -100 -8 -117 -22 -6 -5 -22 -9 -35 -8 -18 1 -311 -26 -349 -32
-3 0 4 -4 15 -8 13 -5 -18 -11 -86 -15 -59 -4 -124 -10 -145 -13 -22 -3 -49
-5 -61 -5 -13 0 -23 -4 -23 -9 0 -5 -7 -9 -15 -9 -20 0 -123 -106 -188 -192
-28 -38 -52 -66 -54 -64 -8 8 116 185 154 219 22 21 43 37 46 37 12 0 142 88
158 106 9 11 38 62 64 114 71 142 68 139 114 127 34 -9 44 -7 82 16 50 29 74
47 130 96 36 30 39 38 39 80 -1 25 2 63 6 84 6 34 3 42 -26 72 -18 18 -29 38
-26 43 3 6 3 18 0 27 -9 22 -133 115 -154 115 -9 0 -25 7 -36 15 -10 8 -26 14
-34 15 -8 0 -4 -6 9 -13 37 -18 40 -39 4 -26 -44 15 -70 38 -56 47 9 5 1 12
-22 21 -41 14 -55 9 -55 -23 0 -24 18 -36 82 -56 40 -12 57 -28 41 -39 -5 -3
-17 -24 -27 -45 -14 -31 -17 -53 -13 -101 6 -60 5 -63 -33 -116 -22 -30 -51
-70 -64 -91 -14 -20 -30 -39 -36 -43 -14 -8 -90 -124 -90 -136 0 -14 -29 -59
-59 -92 -20 -22 -31 -26 -52 -22 -24 6 -33 0 -69 -47 -23 -29 -50 -57 -59 -62
-41 -22 -80 -70 -86 -107 -4 -21 -13 -43 -21 -50 -8 -7 -14 -30 -14 -58 0 -25
-7 -55 -15 -65 -8 -11 -15 -28 -15 -38 0 -10 -9 -26 -20 -35 -11 -10 -20 -21
-20 -25 0 -4 -45 -100 -100 -213 -55 -114 -100 -209 -100 -212 0 -4 -18 -37
-40 -74 -22 -38 -40 -72 -39 -76 3 -13 -31 -86 -57 -119 l-23 -32 -1 -890 0
-889 67 13 c166 32 349 54 483 59 80 3 170 8 201 11 36 4 70 2 95 -6 21 -8 46
-14 54 -15 37 -4 60 -18 60 -36 0 -12 7 -19 20 -19 11 0 20 -4 20 -10 0 -5 5
-10 10 -10 6 0 26 -15 44 -34 32 -32 33 -34 15 -47 -25 -18 -24 -23 9 -36 27
-11 26 -11 -13 -12 -134 -5 -310 -22 -319 -31 -5 -5 -53 -10 -106 -10 -113 0
-228 -12 -328 -35 -75 -17 -91 -31 -44 -38 20 -3 16 -4 -13 -6 -23 0 -45 -4
-51 -8 -5 -5 -1 0 9 10 11 9 15 17 11 18 -51 4 -81 12 -90 23 -8 12 -12 11
-24 -7 -8 -12 -13 -25 -12 -29 1 -4 -9 -27 -22 -50 -17 -31 -31 -44 -50 -46
l-26 -3 0 -658 0 -658 98 -6 c53 -4 144 -15 202 -26 58 -10 137 -22 175 -26
151 -14 228 -31 222 -48 -2 -8 -34 -12 -93 -12 -66 0 -88 -3 -86 -12 3 -17 3
-17 -70 7 -110 36 -124 40 -134 40 -5 0 9 -12 31 -26 22 -15 31 -23 20 -19
-11 4 -44 16 -72 26 -60 22 -129 25 -136 7 -2 -9 -22 -12 -58 -11 -30 2 -64
-2 -77 -9 l-22 -11 0 -339 0 -338 1768 0 c1401 0 1771 3 1781 12 11 10 14 10
18 1 5 -15 33 -18 33 -3 0 5 -8 14 -17 19 -15 9 -16 12 -4 20 7 5 11 14 7 19
-4 6 3 16 14 22 11 6 20 17 20 24 0 17 25 27 45 20 23 -9 18 -19 -17 -29 -17
-6 -34 -16 -36 -24 -3 -8 0 -11 6 -7 14 8 24 -26 16 -49 -5 -12 -4 -16 3 -12
6 4 13 1 16 -5 3 -10 7 -10 20 1 10 7 17 18 17 24 0 5 12 20 26 33 14 13 22
29 19 35 -7 10 19 37 60 65 19 12 99 13 111 1 3 -3 21 -3 39 0 19 3 35 1 40
-6 5 -9 10 -9 21 0 23 19 28 2 10 -27 -20 -29 -14 -74 8 -74 9 0 12 7 9 20 -3
11 -9 17 -14 14 -18 -11 -8 19 13 41 17 18 27 21 40 14 10 -6 16 -15 12 -21
-4 -7 -9 -6 -14 2 -4 7 -13 9 -19 6 -16 -10 -13 -26 5 -26 11 0 14 -5 9 -18
-4 -9 -9 -23 -12 -30 -3 -8 6 -2 20 12 17 17 32 24 43 19 13 -5 15 -2 10 18
-6 21 -5 22 4 6 14 -21 6 -49 -12 -46 -43 5 -51 -1 -45 -33 3 -18 3 -28 1 -21
-3 7 -12 9 -21 6 -9 -4 -14 -2 -11 3 4 5 -6 10 -20 10 -15 1 -21 -1 -14 -3 6
-3 12 -11 12 -19 0 -12 231 -14 1590 -14 l1590 0 0 529 c0 414 -3 530 -12 534
-10 4 -10 6 0 6 18 1 14 29 -5 34 -17 4 -17 5 0 6 20 1 23 27 5 34 -10 4 -10
6 0 6 9 1 12 88 12 401 0 368 -2 403 -19 452 -20 57 -38 195 -22 168 5 -9 16
-47 24 -85 14 -66 15 -40 16 424 1 446 -1 493 -15 487 -9 -3 -17 -6 -18 -6 -1
0 -1 -13 2 -29 5 -35 -13 -49 -28 -21 -6 11 -8 20 -4 20 3 0 1 7 -6 15 -25 30
-153 -1 -143 -34 4 -13 2 -13 -7 2 -16 25 -37 21 -54 -13 -8 -16 -11 -30 -6
-30 4 0 6 -9 3 -20 -3 -11 -9 -18 -13 -15 -12 8 -21 67 -11 79 5 6 12 32 15
59 6 38 4 52 -13 75 -22 32 -40 89 -24 79 22 -14 32 39 17 89 -8 26 -14 56
-14 67 0 11 -18 44 -40 73 -22 29 -40 64 -40 78 0 25 1 24 43 -14 23 -22 44
-40 47 -40 3 0 12 15 19 33 8 17 23 39 33 48 18 16 17 19 -21 66 -44 56 -87
93 -107 93 -8 0 -11 -6 -8 -15 9 -22 -14 -18 -26 4 -5 11 -10 38 -10 60 0 39
2 40 63 71 79 40 82 44 29 37 l-42 -5 25 20 c21 16 35 19 66 14 38 -6 119 10
119 23 0 4 11 8 23 9 13 1 35 6 48 11 23 9 23 10 -8 10 -17 1 -35 5 -38 11 -3
6 -22 10 -41 10 -38 0 -45 14 -15 30 14 7 28 7 48 -1 29 -11 153 -18 153 -9 0
4 -5 11 -12 18 -14 14 -13 115 1 120 7 2 11 69 11 191 0 156 -3 190 -16 210
-13 18 -18 20 -25 10 -6 -10 -8 -9 -8 6 0 11 -3 35 -7 53 -5 27 -10 33 -25 29
-11 -3 -19 -2 -19 2 0 4 -9 17 -20 29 -12 12 -16 22 -9 22 11 0 9 44 -7 130
l-7 35 37 -48 c21 -27 35 -54 33 -61 -3 -7 1 -23 9 -37 l13 -24 1 26 c0 61
-71 168 -127 190 -13 5 -23 15 -23 24 0 8 -5 15 -11 15 -6 0 -9 7 -5 15 3 8 1
15 -4 15 -6 0 -10 14 -10 30 0 29 13 40 25 20 3 -5 13 -10 22 -10 13 0 13 3 3
15 -25 30 9 14 93 -45 l87 -60 0 450 0 449 -37 6 c-21 4 -81 15 -133 25 -52
10 -124 22 -160 25 -36 3 -79 10 -95 15 -17 6 -50 12 -75 14 -25 2 -48 4 -51
5 -13 2 -20 53 -9 66 9 11 7 12 -10 8 -11 -3 -20 -2 -19 3 1 5 1 11 -1 14 -1
3 -3 18 -5 34 -2 17 -16 39 -32 51 -25 20 -26 25 -17 56 15 49 2 92 -42 145
-88 104 -96 125 -103 270 -4 80 -11 127 -20 137 -7 9 -16 45 -18 79 -4 54 -2
67 17 91 27 34 69 56 112 59 46 2 516 -11 616 -18 l82 -5 0 414 0 414 -237 6
c-131 4 -319 10 -418 13 -159 6 -182 5 -194 -9z m-3811 -634 c0 -5 -12 -14
-28 -20 l-27 -13 24 20 c25 22 31 24 31 13z m-107 -117 c-10 -13 -19 -23 -21
-21 -5 5 22 45 31 45 4 0 0 -11 -10 -24z m-55 -88 c-16 -55 -57 -138 -58 -118
0 13 -1 13 -11 0 -17 -24 0 61 18 89 11 18 12 22 2 16 -8 -5 1 8 20 28 19 20
36 35 39 33 2 -2 -2 -24 -10 -48z m57 -104 c-23 -79 -30 -61 -8 21 10 38 19
61 21 52 2 -9 -4 -42 -13 -73z m-191 39 c-10 -42 -24 -51 -24 -16 0 26 6 36
28 42 1 1 -1 -11 -4 -26z m166 -16 c0 -18 -40 -80 -47 -73 -9 9 28 97 38 90 5
-3 9 -11 9 -17z m-201 -9 c-1 -13 -4 -34 -8 -48 l-7 -25 -8 28 c-8 31 0 67 15
67 5 0 9 -10 8 -22z m1120 -60 c8 -22 8 -35 1 -42 -14 -14 -30 10 -30 47 0 37
16 34 29 -5z m2118 -174 c5 -16 -40 -26 -48 -12 -4 7 -5 16 -2 21 7 11 46 5
50 -9z m-56 -73 c-6 -11 -8 -37 -5 -57 5 -33 4 -36 -9 -26 -8 7 -23 10 -33 6
-18 -5 -18 -5 -1 6 27 17 20 27 -15 23 l-33 -4 24 19 c18 15 21 21 10 25 -8 3
1 6 19 6 20 1 35 7 39 16 3 9 8 14 10 11 3 -2 0 -13 -6 -25z m-157 -50 c3 -5
-1 -14 -9 -21 -8 -7 -12 -17 -9 -22 3 -5 14 -2 25 8 25 22 69 27 69 8 0 -9 -4
-13 -9 -10 -11 7 -23 -22 -14 -36 3 -7 1 -8 -6 -4 -6 4 -23 -2 -37 -13 -16
-13 -21 -21 -13 -22 8 0 3 -5 -10 -10 -16 -6 -21 -14 -17 -26 4 -9 1 -20 -6
-25 -11 -6 -10 -8 0 -8 7 0 10 -4 7 -10 -3 -5 -31 -10 -61 -10 -39 0 -53 3
-48 12 5 8 -4 9 -34 5 -25 -5 -43 -3 -47 4 -10 14 -52 3 -78 -21 -11 -11 -18
-20 -14 -20 3 0 -7 -15 -24 -32 -26 -29 -42 -77 -20 -64 4 3 6 -6 3 -19 -2
-13 -9 -23 -14 -22 -5 1 -15 -6 -21 -15 -9 -14 -8 -20 8 -32 15 -11 21 -11 23
-3 1 7 12 18 23 25 19 12 20 11 14 -7 -7 -25 7 -27 29 -6 8 8 25 15 37 15 21
0 134 103 134 122 0 9 25 28 38 28 22 0 6 -20 -102 -124 -34 -32 -58 -62 -55
-67 3 -5 1 -9 -3 -9 -5 0 -13 -10 -18 -21 -6 -12 -14 -21 -18 -20 -5 2 -21
-11 -37 -29 -21 -23 -28 -42 -28 -75 -1 -24 3 -47 9 -51 6 -4 2 -16 -13 -31
-19 -20 -19 -23 -4 -17 16 6 17 4 7 -14 -6 -12 -13 -52 -15 -89 -2 -38 -7 -85
-11 -105 -5 -26 -4 -38 4 -38 6 0 11 -10 11 -22 0 -50 11 -4 21 83 9 86 27
164 49 214 5 11 14 38 19 61 14 54 63 119 93 120 35 2 90 26 118 52 14 12 28
22 31 22 3 0 19 11 35 25 39 33 52 32 56 -7 2 -25 8 -34 26 -36 12 -2 22 -7
22 -12 0 -5 9 -12 21 -15 40 -13 69 -47 67 -79 0 -17 3 -62 7 -99 6 -55 5 -71
-6 -78 -9 -5 -9 -9 -2 -9 17 0 8 -87 -11 -106 -18 -18 -21 -34 -6 -34 6 0 10
-9 10 -20 0 -15 7 -20 28 -21 l27 -1 -30 -13 c-25 -11 -34 -11 -57 1 -15 8
-32 14 -38 14 -18 0 -47 -37 -72 -90 -14 -30 -27 -150 -16 -150 5 0 8 -9 8
-20 0 -11 -4 -20 -10 -20 -5 0 -12 -16 -16 -35 -3 -19 -10 -37 -14 -40 -4 -2
-8 -55 -9 -117 -2 -104 -11 -145 -31 -133 -5 3 -12 1 -15 -5 -11 -17 15 -40
44 -40 15 0 31 -8 38 -19 7 -11 26 -22 43 -26 39 -9 38 -30 -2 -45 -19 -7 -27
-14 -20 -17 9 -4 10 -9 2 -18 -8 -10 -3 -14 24 -19 21 -4 45 -19 60 -36 23
-28 25 -29 31 -10 8 24 28 26 45 5 18 -21 27 -19 44 13 14 25 15 25 16 5 0
-12 5 -25 10 -28 6 -4 4 -12 -6 -22 -11 -12 -18 -13 -27 -4 -15 15 -27 14 -27
-4 0 -10 -10 -15 -30 -15 -16 0 -30 -4 -30 -10 0 -5 -8 -10 -18 -10 -14 0 -17
-7 -14 -40 4 -38 6 -40 39 -40 30 0 34 -2 23 -15 -7 -8 -18 -15 -24 -15 -7 0
-24 -6 -39 -12 -21 -10 -27 -20 -27 -45 0 -28 5 -34 56 -59 65 -32 76 -50 46
-75 -12 -9 -22 -24 -22 -33 0 -17 -37 -46 -61 -46 -23 0 -54 -36 -37 -43 7 -3
2 -6 -12 -6 -32 -1 -83 30 -111 68 -12 16 -36 62 -53 101 -17 38 -67 121 -111
183 l-80 113 -55 2 c-30 1 -56 7 -58 12 -2 6 -14 10 -27 10 -16 0 -30 -11 -44
-36 -27 -45 -37 -40 -17 8 l15 34 -29 -4 c-23 -3 -29 1 -35 20 -4 12 -11 25
-14 28 -4 3 -19 27 -35 53 -28 49 -63 74 -90 64 -21 -8 -52 -73 -60 -125 -7
-47 -50 -104 -72 -95 -25 9 -15 33 16 40 17 3 30 12 30 19 0 13 -19 13 -66 -1
-14 -4 -28 6 -41 29 -10 18 -13 15 -33 -25 -30 -59 -53 -79 -90 -79 -39 0 -40
22 -2 87 28 50 53 127 51 166 0 21 -1 21 -9 2 l-9 -20 0 20 c-1 18 -3 17 -25
-7 -13 -16 -27 -28 -32 -28 -4 0 -53 -46 -109 -102 -112 -114 -155 -154 -194
-180 -14 -10 -21 -18 -16 -19 17 -2 -39 -17 -66 -18 -23 -1 -26 3 -25 30 1 32
6 36 106 84 102 49 92 78 -33 100 -32 5 -43 2 -75 -23 -48 -39 -114 -135 -114
-167 0 -40 -16 -29 -30 23 -12 40 -20 50 -53 65 -22 10 -71 37 -110 60 -119
70 -112 68 -173 57 -31 -5 -57 -10 -59 -10 -8 0 -2 53 8 72 15 28 57 18 120
-27 26 -19 80 -50 119 -70 l71 -36 37 31 c20 16 47 30 59 30 13 0 55 9 93 19
68 19 71 19 135 1 35 -10 70 -22 76 -26 6 -4 10 -3 7 2 -2 5 -15 32 -28 59
-13 28 -31 61 -41 75 -10 14 -36 81 -59 150 -39 116 -41 129 -34 190 5 36 8
71 7 78 0 6 7 12 16 12 9 0 29 18 46 40 16 23 45 50 65 61 46 28 239 94 315
108 101 20 104 21 99 34 -2 7 0 33 4 59 8 38 6 55 -9 89 -11 22 -19 50 -19 62
0 46 54 71 101 47 10 -6 19 -7 19 -2 0 5 14 27 32 50 22 28 40 42 56 42 31 0
62 -17 62 -35 0 -8 4 -15 9 -15 12 0 46 48 55 78 4 12 12 19 18 16 7 -4 8 -2
4 4 -4 7 7 32 23 56 17 25 31 49 31 54 0 5 7 16 16 23 14 12 14 14 -3 20 -16
7 -16 8 3 8 24 1 59 35 73 73 7 18 15 26 25 22 9 -3 21 5 31 20 10 15 33 34
52 43 19 9 40 27 46 40 6 15 19 23 34 23 13 0 22 4 19 9 -6 9 16 21 40 21 16
0 104 60 104 72 0 11 17 10 24 -1z m-238 -129 c-17 -16 -18 -16 -5 5 7 12 15
20 18 17 3 -2 -3 -12 -13 -22z m-3919 -144 c-3 -8 -6 -5 -6 6 -1 11 2 17 5 13
3 -3 4 -12 1 -19z m98 -8 c3 -5 1 -10 -4 -10 -6 0 -11 5 -11 10 0 6 2 10 4 10
3 0 8 -4 11 -10z m3919 -72 c-4 -7 -14 -21 -22 -31 -14 -16 -14 -17 1 -11 20
7 22 -5 4 -31 -11 -14 -16 -15 -22 -5 -5 9 -4 11 3 6 7 -4 12 -5 12 -2 0 3 -5
8 -10 11 -6 3 -14 -5 -20 -19 -5 -14 -14 -26 -20 -26 -9 0 11 41 46 96 16 24
41 35 28 12z m-118 -164 c-3 -9 -9 -27 -12 -40 -5 -20 -9 -22 -25 -13 -19 10
-19 11 1 40 23 31 46 40 36 13z m-2139 -214 c49 -100 66 -163 61 -235 -6 -93
-13 -99 -123 -91 -114 9 -122 11 -140 46 -20 39 -19 45 12 74 19 18 28 39 34
81 4 32 21 85 38 119 16 33 32 69 35 80 10 31 47 -2 83 -74z m3950 -2 c-3 -8
-6 -5 -6 6 -1 11 2 17 5 13 3 -3 4 -12 1 -19z m133 -78 c0 -5 -2 -10 -4 -10
-3 0 -8 5 -11 10 -3 6 -1 10 4 10 6 0 11 -4 11 -10z m-40 -50 c0 -5 -2 -10 -4
-10 -3 0 -8 5 -11 10 -3 6 -1 10 4 10 6 0 11 -4 11 -10z m-1320 -170 c0 -5 -7
-10 -16 -10 -8 0 -12 5 -9 10 3 6 10 10 16 10 5 0 9 -4 9 -10z m1370 -20 c0
-5 -2 -10 -4 -10 -3 0 -8 5 -11 10 -3 6 -1 10 4 10 6 0 11 -4 11 -10z m81 -16
c12 -15 6 -29 -14 -29 -14 -1 -36 25 -37 42 0 14 36 5 51 -13z m-125 -21 c-10
-10 -19 5 -10 18 6 11 8 11 12 0 2 -7 1 -15 -2 -18z m-1311 7 c4 -6 -7 -10
-24 -10 -17 0 -31 5 -31 10 0 6 11 10 24 10 14 0 28 -4 31 -10z m-3748 -22
c-3 -8 -6 -5 -6 6 -1 11 2 17 5 13 3 -3 4 -12 1 -19z m3748 -49 c10 -16 0 -21
-29 -13 -14 3 -23 10 -20 15 7 12 41 11 49 -2z m125 -60 c0 -4 -4 -11 -10 -14
-5 -3 -10 -17 -10 -30 0 -13 -4 -26 -9 -29 -5 -3 -7 -14 -5 -24 3 -10 -6 -28
-24 -45 l-29 -28 -47 40 c-26 23 -51 41 -57 41 -17 0 -9 31 15 57 34 37 176
63 176 32z m-2976 -63 c20 -43 20 -46 -3 -46 -27 0 -44 26 -37 55 9 34 21 31
40 -9z m137 17 c6 -6 9 -21 7 -34 -3 -21 -9 -24 -48 -26 -54 -2 -85 17 -75 46
7 25 28 27 48 6 13 -12 15 -12 20 5 5 20 30 21 48 3z m907 -5 c16 -16 16 -61
0 -56 -7 3 -17 14 -23 26 -5 12 -14 22 -20 22 -5 0 -3 5 5 10 19 13 24 12 38
-2z m-828 -23 c5 3 11 1 15 -5 3 -5 -2 -10 -13 -10 -25 0 -32 8 -24 28 6 15 7
15 10 -1 2 -9 7 -15 12 -12z m-2434 -122 c-18 -33 -21 -26 -6 13 6 15 13 24
16 21 3 -3 -1 -18 -10 -34z m2313 -2 c11 -7 10 -11 -7 -20 -15 -8 -21 -7 -25
3 -9 24 7 32 32 17z m-174 -21 c3 -5 15 -10 27 -10 11 0 32 -10 47 -23 24 -20
28 -31 30 -89 1 -36 -2 -69 -7 -72 -14 -8 -2 -58 19 -78 16 -16 16 -21 4 -45
-13 -24 -12 -29 3 -46 16 -18 13 -17 -38 2 -68 26 -73 26 -60 2 8 -15 6 -24
-7 -37 -16 -15 -17 -15 -23 0 -3 9 -17 22 -30 29 -32 16 -70 73 -70 105 0 20
3 23 12 14 18 -18 25 -15 32 13 4 14 14 25 22 25 18 0 67 -50 90 -92 13 -25
44 -39 44 -20 0 15 -43 87 -56 95 -8 4 -21 22 -30 40 -9 18 -30 47 -46 66 -26
29 -28 35 -14 43 8 5 13 15 10 23 -15 38 22 86 41 55z m4272 -12 c-3 -8 -6 -5
-6 6 -1 11 2 17 5 13 3 -3 4 -12 1 -19z m-6489 -118 c-44 -93 -112 -280 -135
-375 -8 -33 -20 -109 -27 -168 -8 -60 -19 -114 -26 -120 -10 -10 -11 -7 -5 13
4 14 11 57 15 95 15 128 22 180 30 220 5 22 12 54 15 70 4 17 10 39 15 50 15
39 124 260 138 283 29 44 20 16 -20 -68z m1817 -20 c7 -24 6 -24 -8 -5 -8 11
-18 31 -22 45 -7 24 -6 24 8 5 8 -11 18 -31 22 -45z m4540 -110 c-3 -5 6 -27
21 -49 17 -27 24 -47 19 -60 -6 -19 -10 -18 -61 26 -56 49 -62 61 -42 81 14
14 72 16 63 2z m-3947 -56 c15 -4 22 -14 22 -30 0 -27 -8 -29 -45 -12 -14 6
-25 19 -25 30 0 19 10 22 48 12z m2628 -48 c3 -8 4 -22 2 -31 -3 -14 -5 -14
-22 -2 -12 9 -17 20 -13 31 8 20 26 21 33 2z m-1746 -135 c0 -5 -7 -15 -17
-22 -9 -8 -24 -27 -35 -44 -15 -25 -18 -27 -18 -10 0 21 25 64 44 77 15 10 26
10 26 -1z m478 -164 c4 -19 -6 -21 -27 -8 -16 10 -5 34 12 28 7 -2 13 -11 15
-20z m1240 -134 c-10 -2 -28 -2 -40 0 -13 2 -5 4 17 4 22 1 32 -1 23 -4z m272
-41 c0 -15 -2 -15 -10 -2 -13 20 -13 33 0 25 6 -3 10 -14 10 -23z m-5490 -62
c-6 -29 -13 -56 -16 -59 -6 -6 -4 5 12 90 3 17 8 29 10 26 2 -2 0 -28 -6 -57z
m3848 -132 c19 -24 5 -70 -32 -104 -20 -19 -36 -38 -36 -43 0 -5 -9 -13 -20
-16 -11 -3 -20 -13 -20 -20 0 -21 -28 -7 -36 17 -4 14 2 29 22 49 15 15 31 26
36 23 4 -3 8 1 8 10 0 8 -6 16 -12 19 -8 2 1 17 24 40 39 40 50 44 66 25z
m121 -52 c10 -12 8 -13 -8 -9 -12 3 -21 9 -21 14 0 14 16 11 29 -5z m-24 -56
c-8 -16 -12 -37 -8 -47 6 -16 5 -16 -10 -5 -8 8 -13 21 -10 30 11 36 26 61 34
56 5 -3 2 -18 -6 -34z m-37 -67 c-67 -153 -150 -283 -180 -283 -4 0 -8 -12 -8
-26 0 -14 -4 -23 -10 -19 -5 3 -10 1 -10 -5 0 -6 10 -15 23 -20 17 -7 18 -9 5
-9 -10 -1 -18 -8 -18 -18 0 -9 -18 -57 -41 -107 -59 -134 -71 -156 -83 -156
-9 0 -46 -81 -51 -110 0 -3 -6 -14 -12 -24 -10 -18 -12 -17 -27 12 -28 55 -17
101 52 205 14 21 49 92 77 157 31 71 83 164 131 234 43 65 84 125 89 134 22
38 27 42 46 42 12 0 19 -3 17 -7z m2762 -289 c0 -8 -4 -12 -10 -9 -5 3 -10 10
-10 16 0 5 5 9 10 9 6 0 10 -7 10 -16z m-2295 -184 c18 -35 19 -41 3 -37 -18
3 -28 18 -28 45 0 30 6 28 25 -8z m2418 -457 c-7 -2 -19 -2 -25 0 -7 3 -2 5
12 5 14 0 19 -2 13 -5z m-5018 -483 c11 -17 92 -50 124 -50 17 0 31 -4 31 -10
0 -5 7 -10 16 -10 10 0 42 -17 73 -37 48 -33 64 -38 116 -39 45 -1 74 -9 119
-31 52 -27 65 -30 127 -25 67 5 107 -8 94 -28 -3 -5 -1 -11 5 -15 5 -3 10 1
10 9 0 9 1 16 3 16 2 0 29 -5 60 -10 45 -9 62 -8 84 4 16 8 45 17 66 21 23 5
39 14 42 26 10 30 27 11 23 -26 -3 -41 6 -52 28 -35 13 12 17 11 24 0 5 -9 5
-19 -2 -27 -10 -13 -3 -51 9 -40 3 4 15 0 27 -8 27 -19 56 -19 84 1 28 19 28
47 1 86 -12 16 -20 30 -18 31 2 1 14 8 26 15 13 6 25 12 27 12 13 0 26 -74 26
-149 0 -124 17 -243 45 -318 14 -36 25 -67 25 -68 0 -5 -103 -40 -117 -40 -7
0 -19 -9 -26 -19 -16 -22 -37 -14 -37 14 0 11 -9 24 -20 30 -27 14 -25 2 6
-54 23 -41 29 -46 58 -44 17 1 37 -1 43 -5 6 -4 14 -3 18 3 3 5 1 10 -6 10 -7
0 -10 3 -6 6 3 3 11 3 17 -1 8 -5 6 -14 -5 -31 -24 -37 -11 -60 37 -68 29 -5
47 -2 64 9 30 20 30 30 -1 51 -30 20 -32 34 -6 34 26 0 37 18 17 26 -9 3 -16
12 -16 20 0 21 18 17 25 -6 3 -11 10 -20 14 -20 14 0 49 -75 45 -98 -2 -12 2
-33 10 -45 9 -14 16 -66 20 -142 11 -205 12 -200 -48 -275 -29 -36 -61 -77
-70 -92 -10 -16 -22 -28 -27 -28 -5 0 0 13 12 29 11 16 19 37 17 47 -3 16 -7
13 -21 -13 -9 -18 -29 -44 -43 -58 -15 -15 -22 -30 -17 -38 5 -9 8 -7 11 5 2
10 10 18 18 18 20 0 10 -14 -26 -40 -29 -21 -29 -21 -25 0 5 26 -21 27 -30 1
-3 -11 -19 -24 -35 -30 -22 -7 -28 -14 -23 -27 6 -15 8 -15 24 4 16 21 39 30
39 16 0 -6 -36 -53 -75 -98 -11 -13 -40 -64 -65 -114 -25 -49 -48 -85 -52 -79
-3 5 -4 16 -1 24 7 18 -8 16 -37 -7 -19 -15 -22 -22 -13 -31 8 -8 9 -18 2 -30
-5 -11 -10 -34 -11 -53 -1 -26 -7 -37 -26 -45 -13 -7 -27 -9 -30 -6 -3 2 -11
0 -18 -6 -9 -8 -10 -18 -3 -35 16 -44 10 -46 -25 -8 -25 27 -39 35 -55 31 -14
-3 -21 0 -21 9 0 8 5 14 10 14 6 0 10 15 10 33 0 19 7 48 15 65 16 32 27 104
14 96 -6 -4 -22 -53 -23 -76 -1 -3 -4 -10 -8 -14 -5 -4 -8 -16 -8 -26 0 -10
-7 -21 -15 -24 -8 -4 -12 -11 -8 -17 3 -6 1 -7 -6 -3 -8 5 -9 12 -3 19 10 12
36 85 37 102 1 6 5 20 9 32 11 35 -5 50 -21 20 -11 -22 -17 -25 -37 -17 -13 5
-27 6 -30 3 -3 -4 -6 1 -6 10 0 20 -11 22 -28 5 -9 -9 -12 -9 -12 2 0 10 -3
11 -10 4 -8 -8 -21 -7 -45 0 -39 12 -42 18 -20 36 13 11 14 10 9 -6 -7 -19 -6
-19 8 0 8 10 20 16 26 12 6 -3 14 -2 17 4 4 6 3 10 -2 9 -21 -4 -33 2 -33 15
0 8 -4 17 -9 20 -5 4 -7 -2 -4 -12 4 -15 -2 -18 -36 -19 -23 0 -41 3 -41 8 0
16 -26 9 -45 -11 -14 -16 -20 -18 -27 -8 -6 10 -11 9 -22 -5 -7 -9 -23 -17
-35 -17 -21 0 -22 3 -16 43 4 23 13 47 20 52 7 6 16 36 20 68 7 54 6 57 -14
57 -13 0 -21 5 -19 13 2 8 -13 28 -32 45 -26 25 -34 39 -32 60 2 22 -3 31 -23
40 -14 7 -32 12 -40 12 -8 0 -33 17 -56 39 -23 21 -59 44 -81 50 -22 7 -38 14
-36 16 2 3 58 5 125 6 113 1 120 2 116 20 -4 13 0 19 11 19 11 0 14 -5 10 -12
-4 -7 -3 -8 4 -4 19 11 14 34 -8 41 -11 3 -20 10 -20 15 0 4 -11 11 -25 14
-21 5 -25 12 -25 41 0 24 -5 35 -15 35 -24 0 -17 14 15 32 17 9 30 24 30 32 0
8 5 16 12 18 14 5 19 156 6 164 -4 3 -8 34 -8 68 0 50 -6 74 -26 110 -14 25
-30 46 -34 46 -23 0 -150 101 -150 119 0 5 -16 28 -35 51 -19 23 -35 46 -35
51 0 12 25 12 48 0 128 -65 250 -116 228 -94 -13 13 67 83 95 83 15 0 35 7 43
16 21 21 20 77 -1 96 -43 38 -190 97 -219 88 -4 -1 -10 3 -14 9 -3 6 -33 22
-66 34 -37 14 -63 31 -69 45 -6 13 -19 22 -33 22 -12 0 -32 6 -45 13 -12 6
-23 13 -25 13 -2 1 0 18 3 38 7 34 27 47 40 26z m-85 -30 c0 -5 -2 -10 -4 -10
-3 0 -8 5 -11 10 -3 6 -1 10 4 10 6 0 11 -4 11 -10z m2470 -45 c0 -5 -5 -3
-10 5 -5 8 -10 20 -10 25 0 6 5 3 10 -5 5 -8 10 -19 10 -25z m-4233 -51 c-3
-3 -12 -4 -19 -1 -8 3 -5 6 6 6 11 1 17 -2 13 -5z m2888 -44 c11 -33 -16 -57
-29 -25 -6 17 2 45 14 45 5 0 11 -9 15 -20z m75 -90 c0 -5 -4 -10 -10 -10 -5
0 -10 5 -10 10 0 6 5 10 10 10 6 0 10 -4 10 -10z m540 -22 c19 -9 51 -20 70
-23 72 -15 110 -36 110 -61 0 -13 5 -24 11 -24 5 0 7 -4 4 -10 -3 -5 4 -11 17
-11 17 -1 19 -2 5 -6 -10 -3 -36 5 -58 16 -29 15 -58 21 -108 21 -43 0 -71 4
-73 11 -2 7 -24 14 -49 16 -57 5 -87 -17 -96 -69 -9 -58 3 -88 35 -88 15 -1
45 -9 67 -20 45 -22 75 -25 75 -9 0 6 21 -10 47 -34 26 -25 70 -56 98 -69 27
-13 52 -27 54 -33 2 -5 20 -25 40 -44 20 -19 32 -32 26 -29 -5 2 -39 18 -75
35 -36 17 -85 37 -109 44 -24 7 -49 19 -57 26 -7 7 -24 13 -38 13 -14 0 -28 5
-31 10 -3 6 -16 10 -28 10 -12 0 -40 7 -62 15 -22 8 -59 14 -83 15 -44 0 -102
23 -102 40 0 5 -13 24 -28 42 -31 36 -46 68 -32 68 5 0 21 -5 36 -10 36 -14
39 -9 14 34 -23 42 -25 70 -7 106 11 22 21 26 77 31 106 10 212 5 250 -13z
m3499 -564 c-23 -94 -24 -95 -32 -57 -9 46 28 182 46 164 7 -7 3 -41 -14 -107z
m-3849 66 c0 -5 -9 -10 -21 -10 -11 0 -17 5 -14 10 3 6 13 10 21 10 8 0 14 -4
14 -10z m-44 -87 c-10 -10 -19 5 -10 18 6 11 8 11 12 0 2 -7 1 -15 -2 -18z
m3459 -293 l20 -9 -20 0 c-11 0 -27 4 -35 9 -13 9 -13 10 0 9 8 0 24 -4 35 -9z
m162 -16 c29 -4 50 -10 48 -14 -3 -5 -15 -6 -28 -4 -12 2 -5 -2 16 -11 21 -8
61 -18 89 -21 35 -5 46 -9 35 -15 -16 -9 -117 6 -126 19 -9 11 -31 13 -31 2 0
-5 -8 -10 -17 -9 -11 0 -13 3 -5 6 22 9 13 23 -15 23 -16 0 -46 7 -68 15 l-40
14 45 0 c25 1 69 -2 97 -5z m-187 -16 c0 -11 -12 -10 -30 2 -12 7 -10 9 8 7
12 0 22 -5 22 -9z m29 -17 c-15 -5 -22 6 -14 19 6 9 10 9 16 -1 5 -8 4 -15 -2
-18z m248 13 c-3 -3 -12 -4 -19 -1 -8 3 -5 6 6 6 11 1 17 -2 13 -5z m131 -21
c16 -15 15 -20 -3 -20 -8 0 -12 4 -9 9 3 4 -15 8 -40 8 -25 0 -47 4 -50 8 -8
13 88 8 102 -5z m-265 -10 c-7 -2 -19 -2 -25 0 -7 3 -2 5 12 5 14 0 19 -2 13
-5z m312 -33 c-3 -5 -14 -10 -23 -9 -14 0 -13 2 3 9 27 11 27 11 20 0z m-3100
-50 c3 -5 1 -10 -4 -10 -6 0 -11 5 -11 10 0 6 2 10 4 10 3 0 8 -4 11 -10z
m-95 -234 c0 -3 -4 -8 -10 -11 -5 -3 -10 -1 -10 4 0 6 5 11 10 11 6 0 10 -2
10 -4z m2450 -226 c0 -12 -28 -25 -36 -17 -9 9 6 27 22 27 8 0 14 -5 14 -10z
m-101 -52 c-2 -2 -20 -16 -39 -33 l-35 -30 29 33 c17 17 34 32 40 32 5 0 7 -1
5 -2z m-3336 -148 c-3 -11 -10 -23 -16 -27 -7 -4 -8 0 -4 11 4 10 7 22 7 27 0
5 4 9 9 9 5 0 7 -9 4 -20z m-242 -41 c-5 -13 -10 -19 -10 -12 -1 15 10 45 15
40 3 -2 0 -15 -5 -28z m152 -16 c-4 -10 -2 -14 4 -10 7 5 9 -1 5 -15 -5 -22
-6 -21 -18 7 -12 31 -10 50 6 40 5 -3 6 -13 3 -22z m841 -25 c-6 -10 -114 -5
-114 5 0 5 27 7 59 5 33 -1 57 -6 55 -10z m-144 -2 c0 -2 -7 -7 -16 -10 -8 -3
-12 -2 -9 4 6 10 25 14 25 6z m400 -9 c19 -2 44 -8 55 -15 17 -9 13 -10 -20
-5 -22 3 -58 9 -79 13 -22 5 -44 6 -50 3 -5 -3 -6 -1 -2 5 4 6 19 9 34 7 15
-3 43 -7 62 -8z m-1206 -4 c4 -5 12 -9 17 -9 19 -3 20 -4 14 -15 -5 -7 -13 -5
-25 6 -17 15 -19 15 -29 -2 -9 -15 -10 -15 -11 -2 0 25 18 37 34 22z m1187
-48 c0 -6 -9 -11 -21 -13 -11 -2 -20 -7 -20 -11 0 -9 -46 -8 -56 2 -4 4 4 7
17 7 14 0 34 7 45 15 20 15 36 15 35 0z m-1198 -45 c-4 -4 -24 -5 -43 -2 -28
4 -31 6 -16 12 24 8 70 0 59 -10z m131 -6 c8 -3 12 -12 10 -19 -4 -10 -13 -11
-37 -4 -18 5 -48 9 -67 10 -32 1 -33 2 -10 9 31 10 83 12 104 4z m1220 -120
c3 -8 2 -12 -4 -9 -6 3 -10 10 -10 16 0 14 7 11 14 -7z"/>
<path d="M5175 6260 c-3 -5 1 -10 9 -10 8 0 18 5 21 10 3 6 -1 10 -9 10 -8 0
-18 -4 -21 -10z"/>
<path d="M5140 6250 c-8 -5 -11 -12 -7 -16 4 -4 13 -2 19 4 15 15 7 24 -12 12z"/>
<path d="M4795 6009 c-4 -6 -5 -12 -2 -15 2 -3 7 2 10 11 7 17 1 20 -8 4z"/>
<path d="M4904 5944 c3 -9 6 -20 6 -25 0 -4 7 -6 15 -3 20 8 19 30 -1 38 -24
9 -27 8 -20 -10z"/>
<path d="M4697 5823 c-4 -3 -7 -11 -7 -17 0 -6 5 -5 12 2 6 6 9 14 7 17 -3 3
-9 2 -12 -2z"/>
<path d="M4503 5678 c-15 -19 -22 -68 -11 -74 15 -9 25 7 31 49 6 37 -2 47
-20 25z"/>
<path d="M4962 5410 c-39 -6 -61 -21 -62 -42 0 -4 27 -5 60 -1 50 5 64 3 80
-12 25 -22 16 -35 -42 -60 -59 -26 -78 -44 -78 -74 l0 -26 87 4 c88 3 100 -4
40 -25 -42 -14 -36 -30 11 -25 63 6 120 44 91 61 -9 6 -6 12 14 21 21 10 26
17 21 33 -3 12 -10 25 -15 31 -5 5 -9 21 -9 35 0 27 -27 58 -67 79 -24 12 -63
12 -131 1z m92 -139 c7 -10 -46 -31 -78 -31 -12 0 -28 -6 -35 -12 -10 -11 -11
-10 -6 2 12 34 104 65 119 41z"/>
<path d="M4440 5112 c0 -12 30 -36 63 -50 15 -6 27 -16 27 -21 0 -5 42 -40 93
-78 101 -75 167 -117 167 -108 0 13 -31 65 -39 65 -4 0 -37 23 -72 51 -35 29
-82 60 -104 70 -22 10 -53 32 -69 48 -27 29 -66 42 -66 23z"/>
<path d="M5062 4941 c-57 -55 -82 -101 -82 -152 0 -9 23 -62 50 -118 28 -56
57 -118 65 -138 19 -44 28 -39 15 8 -15 52 -12 83 10 101 18 16 20 16 40 -9
l20 -26 0 62 c0 60 -1 62 -30 68 -36 7 -46 34 -36 96 8 45 15 167 11 167 -1 0
-30 -26 -63 -59z"/>
<path d="M4822 4840 c0 -14 2 -19 5 -12 2 6 2 18 0 25 -3 6 -5 1 -5 -13z"/>
<path d="M4421 4801 c-14 -4 -27 -13 -29 -20 -3 -10 0 -12 14 -7 11 4 31 10
47 13 15 3 27 9 27 14 0 10 -24 10 -59 0z"/>
<path d="M4876 4765 c-4 -15 -3 -32 2 -37 14 -14 26 27 14 48 -8 14 -10 12
-16 -11z"/>
<path d="M4436 4715 c-19 -15 -19 -15 2 -15 13 0 22 6 22 15 0 18 0 18 -24 0z"/>
<path d="M4895 4689 c-10 -14 -1 -21 19 -13 9 3 13 10 10 15 -7 12 -21 11 -29
-2z"/>
<path d="M2580 1731 c0 -6 1 -11 3 -11 1 0 27 -9 57 -21 170 -64 310 -104 318
-92 4 5 14 12 22 15 10 4 4 8 -15 13 -16 3 -61 20 -99 37 -38 16 -78 30 -88
31 -10 1 -16 7 -14 14 3 7 1 15 -4 18 -6 4 -10 1 -10 -5 0 -7 -10 -10 -27 -6
-74 14 -143 18 -143 7z"/>
<path d="M3045 1590 c3 -5 8 -10 11 -10 2 0 4 5 4 10 0 6 -5 10 -11 10 -5 0
-7 -4 -4 -10z"/>
<path d="M3045 1310 c3 -5 8 -10 11 -10 2 0 4 5 4 10 0 6 -5 10 -11 10 -5 0
-7 -4 -4 -10z"/>
<path d="M3195 1311 c-3 -5 -1 -12 5 -16 5 -3 10 1 10 9 0 18 -6 21 -15 7z"/>
<path d="M2940 1270 c0 -5 -7 -7 -15 -4 -9 4 -15 0 -15 -7 0 -9 -3 -10 -8 -4
-4 6 -30 10 -58 10 -40 0 -50 -3 -46 -14 4 -10 1 -12 -8 -6 -10 6 -12 4 -6
-10 5 -13 3 -15 -6 -8 -17 12 -43 11 -43 -2 0 -5 -4 -16 -8 -23 -13 -20 18
-42 62 -42 22 0 43 5 46 10 3 6 17 10 30 10 13 0 27 5 31 12 5 8 10 7 18 -5 7
-9 26 -15 46 -15 51 0 112 -10 119 -19 3 -5 19 -10 35 -11 17 -1 33 -8 38 -15
5 -8 8 -6 9 8 0 11 3 14 6 7 8 -21 23 -2 18 24 -16 76 -16 78 -25 65 -5 -8
-18 -12 -34 -9 -14 3 -27 0 -30 -6 -3 -7 -5 -7 -5 2 -1 6 -12 12 -26 12 -14 0
-25 5 -25 12 0 6 -3 8 -7 5 -3 -4 -15 1 -26 10 -11 10 -17 12 -13 6 4 -8 1
-13 -9 -13 -8 0 -18 7 -21 15 -7 17 -24 21 -24 5z"/>
<path d="M3196 1228 c4 -18 7 -45 6 -59 -3 -34 14 -47 58 -45 26 1 34 6 32 18
-2 16 61 48 94 48 11 0 14 5 10 16 -3 9 -6 25 -6 35 0 11 -5 17 -10 14 -6 -4
-9 -14 -8 -23 3 -18 -39 -23 -79 -10 -14 5 -23 3 -23 -3 0 -6 -4 -7 -10 -4 -6
3 -7 -1 -4 -9 3 -9 11 -14 17 -13 25 5 15 -30 -13 -46 l-30 -18 0 27 c0 36
-21 104 -32 104 -6 0 -6 -14 -2 -32z"/>
<path d="M2656 1211 c-4 -5 -2 -12 3 -15 5 -4 12 -2 15 3 4 5 2 12 -3 15 -5 4
-12 2 -15 -3z"/>
<path d="M2645 1140 c3 -5 8 -10 11 -10 2 0 4 5 4 10 0 6 -5 10 -11 10 -5 0
-7 -4 -4 -10z"/>
<path d="M3300 1083 c-24 -10 -37 -34 -32 -59 5 -28 29 -31 72 -9 59 31 23 92
-40 68z m30 -22 c0 -5 -7 -11 -15 -15 -15 -5 -20 5 -8 17 9 10 23 9 23 -2z"/>
<path d="M3236 1061 c-4 -7 -5 -15 -2 -18 9 -9 19 4 14 18 -4 11 -6 11 -12 0z"/>
<path d="M2610 1010 c0 -5 5 -10 10 -10 6 0 10 5 10 10 0 6 -4 10 -10 10 -5 0
-10 -4 -10 -10z"/>
<path d="M2790 984 c-23 -8 -36 -19 -38 -33 -2 -11 1 -21 7 -21 17 0 13 -13
-14 -44 -33 -39 -32 -46 10 -46 26 0 42 7 61 30 15 16 31 27 35 24 5 -3 16 2
25 10 18 18 76 21 105 5 17 -8 26 -5 57 22 64 56 63 57 -45 56 -54 0 -114 2
-133 4 -19 3 -51 0 -70 -7z m0 -84 c0 -5 -4 -10 -10 -10 -5 0 -10 5 -10 10 0
6 5 10 10 10 6 0 10 -4 10 -10z"/>
<path d="M2622 971 c7 -9 14 -18 15 -20 2 -2 3 5 3 16 0 11 -7 20 -15 20 -12
0 -12 -3 -3 -16z"/>
<path d="M3052 909 c-40 -39 -71 -74 -68 -77 5 -5 146 133 146 143 0 10 -7 4
-78 -66z"/>
<path d="M2435 950 c3 -5 8 -10 11 -10 2 0 4 5 4 10 0 6 -5 10 -11 10 -5 0 -7
-4 -4 -10z"/>
<path d="M2670 857 c0 -8 7 -17 15 -21 8 -3 15 -2 15 3 0 5 -7 14 -15 21 -12
10 -15 10 -15 -3z"/>
<path d="M2946 794 c-5 -14 -4 -15 9 -4 17 14 19 20 6 20 -5 0 -12 -7 -15 -16z"/>
<path d="M2766 649 c7 -11 -23 -18 -33 -8 -16 16 -46 -26 -39 -56 7 -28 31
-34 40 -10 3 8 9 15 13 14 33 -5 51 4 66 36 17 36 12 45 -12 23 -8 -7 -11 -8
-8 -3 3 6 -3 11 -13 11 -10 0 -17 -3 -14 -7z"/>
<path d="M3023 609 c-23 -45 -33 -79 -23 -79 14 0 42 59 38 82 -3 21 -3 21
-15 -3z"/>
<path d="M2910 600 c0 -5 5 -10 10 -10 6 0 10 5 10 10 0 6 -4 10 -10 10 -5 0
-10 -4 -10 -10z"/>
<path d="M2590 566 c0 -2 7 -7 16 -10 8 -3 12 -2 9 4 -6 10 -25 14 -25 6z"/>
<path d="M2826 364 c-18 -18 -18 -19 -2 -22 22 -5 29 2 24 24 -3 16 -4 16 -22
-2z"/>
<path d="M2354 7503 c14 -342 16 -362 38 -369 30 -9 65 14 93 62 23 39 24 46
14 100 -6 32 -19 75 -30 96 -10 20 -19 46 -19 57 0 33 -37 122 -60 143 -11 10
-20 28 -20 38 0 11 -5 20 -11 20 -8 0 -10 -41 -5 -147z"/>
<path d="M2278 7078 c-42 -23 -75 -45 -72 -50 3 -4 -11 -18 -31 -29 -20 -12
-34 -24 -31 -27 7 -6 86 46 86 57 0 4 29 22 65 40 36 17 65 36 65 41 0 13 6
15 -82 -32z"/>
<path d="M4776 7081 c-16 -18 -16 -20 4 -34 20 -14 66 -12 75 3 6 10 -33 50
-49 50 -7 0 -21 -9 -30 -19z"/>
<path d="M4120 7055 c0 -28 4 -35 20 -35 13 0 20 -7 20 -20 0 -11 5 -20 10
-20 6 0 10 -18 10 -40 l0 -40 60 0 60 0 0 40 c0 38 -2 40 -30 40 -28 0 -30 2
-30 40 0 33 -3 40 -20 40 -13 0 -20 -7 -20 -20 0 -13 -7 -20 -20 -20 -16 0
-20 7 -20 35 0 28 -4 35 -20 35 -16 0 -20 -7 -20 -35z"/>
<path d="M2002 7013 c24 -49 33 -63 41 -63 5 0 6 7 3 16 -3 8 -2 13 2 11 4 -3
16 7 26 22 l20 26 -23 -20 c-14 -12 -25 -15 -29 -9 -8 12 -45 28 -40 17z"/>
<path d="M2088 6941 c-18 -16 -30 -32 -27 -35 3 -3 21 10 39 29 41 42 33 46
-12 6z"/>
<path d="M5107 6743 c-4 -3 -6 -25 -6 -47 1 -23 3 -32 6 -21 3 11 9 24 14 30
20 20 6 58 -14 38z"/>
<path d="M5548 6623 c7 -3 16 -2 19 1 4 3 -2 6 -13 5 -11 0 -14 -3 -6 -6z"/>
<path d="M1860 6515 c0 -8 7 -15 15 -15 8 0 15 7 15 15 0 8 -7 15 -15 15 -8 0
-15 -7 -15 -15z"/>
<path d="M835 6310 c3 -5 11 -10 16 -10 6 0 7 5 4 10 -3 6 -11 10 -16 10 -6 0
-7 -4 -4 -10z"/>
<path d="M850 6290 c-13 -8 -13 -10 -1 -10 11 0 9 -4 -5 -16 -18 -15 -18 -15
3 -5 12 6 32 11 44 11 22 0 22 0 3 15 -23 17 -25 17 -44 5z"/>
<path d="M1975 6169 c-12 -38 -26 -53 -36 -37 -6 9 -9 6 -9 -9 0 -12 -5 -25
-11 -29 -8 -5 -10 3 -7 25 8 52 -8 44 -20 -10 -7 -28 -20 -58 -29 -67 -16 -16
-16 -16 -10 1 3 9 2 17 -3 17 -14 0 -30 -35 -30 -64 0 -14 -4 -28 -10 -31 -5
-3 -10 0 -10 7 0 9 -3 9 -8 2 -4 -6 -18 -17 -30 -23 -22 -12 -23 -11 -17 8 4
12 2 21 -4 21 -6 0 -11 -5 -11 -12 0 -6 -7 -3 -15 8 -14 19 -14 18 -15 -4 0
-25 -18 -61 -38 -77 -7 -6 -15 -31 -17 -55 -3 -27 -12 -50 -22 -59 -16 -12
-16 -12 5 -6 17 5 22 2 22 -11 0 -42 23 -143 31 -138 5 3 9 27 9 53 0 52 16
76 43 65 9 -3 19 -14 22 -25 7 -22 33 -25 41 -5 5 12 11 13 32 3 33 -13 72
-47 72 -61 0 -6 8 -20 17 -31 15 -19 15 -19 9 7 -7 30 4 67 19 67 11 0 22 33
24 70 1 24 1 24 -14 5 -13 -16 -13 -12 1 21 18 43 23 54 61 125 23 41 25 53
19 136 -6 99 -13 127 -28 118 -6 -4 -14 -1 -18 6 -5 9 -10 6 -15 -11z m-73
-141 c-8 -8 -9 -4 -5 13 4 13 8 18 11 10 2 -7 -1 -18 -6 -23z"/>
<path d="M1621 6104 c0 -11 3 -14 6 -6 3 7 2 16 -1 19 -3 4 -6 -2 -5 -13z"/>
<path d="M1716 6054 c-3 -26 -4 -49 -2 -52 3 -2 8 17 11 43 4 25 5 48 3 51 -3
2 -8 -17 -12 -42z"/>
<path d="M1596 6009 c-8 -42 0 -50 9 -9 4 17 5 34 2 36 -2 3 -7 -10 -11 -27z"/>
<path d="M1817 5643 c-3 -5 1 -17 9 -28 14 -18 14 -18 14 2 0 23 -15 39 -23
26z"/>
<path d="M1774 5508 c10 -6 22 -6 26 -2 5 5 -3 10 -18 11 -22 1 -24 0 -8 -9z"/>
<path d="M1660 5450 c27 -20 37 -19 23 2 -4 7 -17 14 -28 15 -17 1 -17 -1 5
-17z"/>
<path d="M110 5243 c0 -6 -22 -8 -55 -5 l-55 4 0 -97 c0 -87 2 -96 16 -85 8 8
23 30 33 49 10 20 30 58 45 85 15 27 24 51 21 54 -3 3 -5 1 -5 -5z"/>
<path d="M2090 4974 c0 -8 5 -12 10 -9 6 4 8 11 5 16 -9 14 -15 11 -15 -7z"/>
<path d="M6375 4490 c10 -11 23 -20 28 -20 6 0 2 9 -8 20 -10 11 -23 20 -28
20 -6 0 -2 -9 8 -20z"/>
<path d="M2044 4358 c-50 -54 -118 -164 -165 -267 -23 -52 -20 -57 56 -95 47
-24 59 -27 86 -17 17 6 56 8 89 4 90 -9 135 30 95 83 -19 26 -19 50 2 58 9 4
43 4 76 0 44 -5 58 -4 53 5 -4 6 -18 11 -32 11 -14 0 -39 7 -56 16 -26 13 -29
20 -24 45 3 16 0 52 -6 80 -12 50 -41 79 -81 79 -8 0 -20 7 -27 15 -18 22 -33
19 -66 -17z"/>
<path d="M1380 4240 c20 -13 33 -13 25 0 -3 6 -14 10 -23 10 -15 0 -15 -2 -2
-10z"/>
<path d="M2716 4105 c-9 -13 -16 -28 -16 -33 0 -15 33 -40 61 -47 23 -6 27 -3
33 20 9 34 -1 65 -20 65 -9 0 -14 -11 -14 -30 0 -20 -5 -30 -15 -30 -19 0 -19
19 0 44 14 19 12 36 -4 36 -5 0 -16 -11 -25 -25z"/>
<path d="M2560 4105 c0 -8 -5 -15 -12 -15 -9 0 -9 -3 0 -12 14 -14 17 -11 26
20 5 13 3 22 -3 22 -6 0 -11 -7 -11 -15z"/>
<path d="M2870 4076 c0 -2 12 -29 26 -60 18 -40 31 -98 44 -194 22 -157 42
-257 71 -358 20 -68 20 -77 7 -182 -7 -61 -10 -108 -6 -106 5 3 8 10 8 16 0 7
9 31 21 54 11 24 21 58 21 76 0 18 5 42 10 52 7 13 6 31 -2 57 -11 33 -11 42
4 64 21 31 47 163 35 171 -5 3 -9 2 -9 -2 0 -15 -43 33 -61 68 -13 26 -19 58
-19 105 0 53 -5 76 -23 104 -43 70 -127 160 -127 135z"/>
<path d="M1681 4048 c0 -7 10 -27 22 -45 12 -17 63 -92 114 -166 200 -294 289
-405 366 -453 20 -13 37 -29 37 -34 0 -5 23 -21 50 -35 27 -14 50 -22 50 -19
0 7 -38 72 -53 89 -12 15 -69 103 -99 155 -14 25 -85 110 -158 190 -73 80
-139 156 -148 170 -10 14 -33 41 -53 60 -20 19 -40 43 -46 53 -5 10 -19 19
-31 20 -12 0 -24 7 -26 14 -7 17 -26 17 -25 1z"/>
<path d="M7192 4035 c0 -16 2 -22 5 -12 2 9 2 23 0 30 -3 6 -5 -1 -5 -18z"/>
<path d="M1218 3855 c-3 -33 -10 -69 -14 -80 -4 -11 -4 -17 0 -13 15 13 32 94
26 123 -5 25 -7 19 -12 -30z"/>
<path d="M7178 3883 c-14 -16 -14 -21 3 -48 l19 -30 0 48 c0 26 -2 47 -3 47
-2 0 -11 -8 -19 -17z"/>
<path d="M7065 3813 c-22 -14 -41 -27 -43 -29 -12 -9 68 -104 87 -104 12 0 71
86 71 104 0 19 -38 56 -58 56 -10 0 -35 -12 -57 -27z"/>
<path d="M3650 3795 c0 -8 7 -15 15 -15 8 0 15 7 15 15 0 8 -7 15 -15 15 -8 0
-15 -7 -15 -15z"/>
<path d="M3395 3780 c-3 -5 1 -10 10 -10 9 0 13 5 10 10 -3 6 -8 10 -10 10 -2
0 -7 -4 -10 -10z"/>
<path d="M6920 3711 l-45 -39 20 -24 c50 -60 90 -98 103 -98 17 0 82 66 82 83
0 13 -98 117 -109 117 -3 0 -26 -18 -51 -39z"/>
<path d="M2810 3389 c0 -11 4 -18 10 -14 5 3 7 12 3 20 -7 21 -13 19 -13 -6z"/>
<path d="M2872 3390 c-10 -17 -9 -25 4 -45 20 -31 56 -33 84 -5 21 21 19 40
-4 40 -8 0 -19 7 -26 15 -17 21 -43 19 -58 -5z m48 -20 c0 -11 -4 -20 -9 -20
-14 0 -23 18 -16 30 10 17 25 11 25 -10z"/>
<path d="M7180 3355 c0 -8 5 -15 10 -15 6 0 10 7 10 15 0 8 -4 15 -10 15 -5 0
-10 -7 -10 -15z"/>
<path d="M7097 3316 c-31 -14 -62 -52 -49 -60 10 -6 46 -1 62 9 6 3 10 12 10
20 0 7 7 15 17 17 14 2 14 5 2 14 -10 8 -21 8 -42 0z"/>
<path d="M6950 3205 c-30 -32 -21 -32 16 0 16 14 24 25 18 25 -6 0 -21 -11
-34 -25z"/>
<path d="M7025 3030 c3 -5 11 -10 16 -10 6 0 7 5 4 10 -3 6 -11 10 -16 10 -6
0 -7 -4 -4 -10z"/>
<path d="M2826 2985 c3 -27 19 -88 35 -135 17 -47 33 -100 36 -118 6 -37 15
-44 56 -48 16 -1 40 -7 52 -14 26 -14 70 -7 78 12 8 23 -12 58 -44 76 -17 9
-44 27 -59 40 -37 29 -50 28 -50 -5 0 -25 -2 -23 -30 20 -16 26 -30 57 -30 67
0 11 -4 28 -9 38 -5 9 -16 40 -25 67 l-16 50 6 -50z m201 -271 c-9 -9 -28 6
-21 18 4 6 10 6 17 -1 6 -6 8 -13 4 -17z"/>
<path d="M4555 2997 c4 -13 7 -30 9 -39 3 -25 26 -48 48 -48 10 0 17 4 14 9
-3 5 1 11 9 15 24 9 18 21 -29 54 -53 38 -58 39 -51 9z"/>
<path d="M2780 2981 c0 -12 5 -21 10 -21 6 0 10 6 10 14 0 8 -4 18 -10 21 -5
3 -10 -3 -10 -14z"/>
<path d="M2708 2952 c-35 -3 -38 -6 -38 -33 0 -26 3 -29 33 -30 l32 -1 -32
-10 c-38 -13 -40 -19 -13 -36 18 -11 20 -10 20 8 0 11 5 20 10 20 6 0 10 -7
10 -15 0 -8 7 -15 15 -15 8 0 15 -5 15 -11 0 -6 -9 -9 -20 -6 -11 3 -20 2 -20
-3 0 -4 -23 -8 -52 -9 -29 0 -58 -7 -65 -14 -12 -11 -8 -18 25 -40 21 -15 51
-27 68 -27 16 0 38 -6 49 -14 11 -7 48 -16 83 -19 55 -6 62 -5 62 11 0 30 -44
106 -68 118 -39 19 -46 31 -23 39 22 7 25 16 15 53 -4 14 -14 22 -28 22 -12 0
-26 3 -31 8 -6 4 -27 6 -47 4z"/>
<path d="M3585 2919 c-9 -14 0 -22 18 -17 13 2 13 5 2 15 -10 9 -16 9 -20 2z"/>
<path d="M3040 2855 c0 -15 18 -40 24 -34 3 3 -1 14 -9 25 -8 10 -14 15 -15 9z"/>
<path d="M3707 2794 c-10 -11 -8 -26 2 -19 22 13 20 -17 -3 -40 -16 -16 -26
-20 -29 -12 -3 7 -6 4 -6 -6 -1 -10 -5 -15 -11 -12 -5 3 -10 1 -10 -5 0 -6
-11 -15 -25 -20 -14 -5 -25 -14 -25 -20 0 -6 -5 -8 -10 -5 -6 4 -20 -5 -31
-19 -11 -14 -27 -26 -36 -26 -27 0 -51 -41 -43 -71 5 -15 6 -30 2 -33 -3 -3
-1 -7 4 -7 44 -6 74 -9 177 -15 71 -4 117 -3 117 3 0 5 14 8 30 5 21 -3 30 0
30 9 0 8 -18 68 -39 133 -37 111 -76 178 -94 160z"/>
<path d="M6292 2756 c-8 -18 -9 -33 -3 -40 5 -6 11 -22 13 -36 4 -24 4 -23 8
5 3 17 3 46 -1 65 l-6 35 -11 -29z"/>
<path d="M2938 2645 c-8 -9 4 -65 13 -59 11 7 12 64 1 64 -5 0 -11 -2 -14 -5z"/>
<path d="M3355 2639 c-10 -15 3 -25 16 -12 7 7 7 13 1 17 -6 3 -14 1 -17 -5z"/>
<path d="M6296 2611 c-4 -7 -5 -15 -2 -18 9 -9 19 4 14 18 -4 11 -6 11 -12 0z"/>
<path d="M6296 2569 c-10 -30 -13 -69 -6 -69 4 0 10 17 12 38 5 38 2 55 -6 31z"/>
<path d="M2430 2460 c0 -5 5 -10 10 -10 6 0 10 5 10 10 0 6 -4 10 -10 10 -5 0
-10 -4 -10 -10z"/>
<path d="M6252 2439 c-15 -6 -20 -14 -15 -24 4 -13 7 -14 14 -4 6 10 12 4 22
-20 14 -32 14 -32 20 -10 16 60 6 75 -41 58z"/>
<path d="M6113 2413 c1 -17 7 -21 28 -20 30 2 29 17 -1 17 -10 0 -20 6 -23 13
-3 6 -4 2 -4 -10z"/>
<path d="M6191 2373 c-1 -22 4 -33 13 -33 21 0 29 17 13 27 -8 4 -17 15 -20
23 -3 8 -6 0 -6 -17z"/>
<path d="M688 2333 c7 -3 16 -2 19 1 4 3 -2 6 -13 5 -11 0 -14 -3 -6 -6z"/>
<path d="M6112 2267 c-26 -9 -31 -15 -26 -31 6 -18 5 -19 -8 -8 -13 10 -17 10
-22 -4 -11 -28 -7 -44 12 -45 14 0 14 -2 -3 -9 -16 -7 -13 -9 16 -9 20 -1 77
-4 127 -7 l92 -7 0 67 0 66 -77 -1 c-43 -1 -93 -7 -111 -12z"/>
<path d="M5984 2179 c-3 -5 6 -9 20 -9 31 0 34 6 6 13 -11 3 -23 1 -26 -4z"/>
<path d="M6145 2113 c-146 -3 -189 -8 -181 -22 3 -4 1 -25 -5 -45 -7 -26 -15
-36 -25 -32 -8 3 -14 1 -14 -3 0 -10 129 -21 283 -24 l97 -2 0 62 c0 34 -3 63
-7 65 -5 2 -71 2 -148 1z"/>
<path d="M5920 2070 c0 -5 5 -10 10 -10 6 0 10 5 10 10 0 6 -4 10 -10 10 -5 0
-10 -4 -10 -10z"/>
<path d="M4647 1949 c7 -7 15 -10 18 -7 3 3 -2 9 -12 12 -14 6 -15 5 -6 -5z"/>
<path d="M4868 1733 c7 -3 16 -2 19 1 4 3 -2 6 -13 5 -11 0 -14 -3 -6 -6z"/>
<path d="M4885 1700 c3 -5 8 -10 11 -10 2 0 4 5 4 10 0 6 -5 10 -11 10 -5 0
-7 -4 -4 -10z"/>
<path d="M4544 1621 c11 -17 -7 -43 -38 -57 l-31 -13 42 -1 c38 0 42 2 48 30
7 31 1 50 -16 50 -6 0 -8 -4 -5 -9z"/>
<path d="M6335 1562 c3 -40 10 -94 16 -120 19 -78 19 -78 28 -64 8 13 31 -49
31 -83 0 -36 24 -84 44 -89 11 -3 22 -3 24 -1 2 2 -14 50 -36 107 -21 57 -49
137 -61 178 -13 41 -29 91 -37 110 -14 34 -15 33 -9 -38z"/>
<path d="M6210 1463 c-14 -7 -33 -13 -42 -13 -10 0 -37 -9 -60 -19 -24 -10
-56 -24 -71 -30 -15 -6 -25 -16 -22 -21 3 -6 -1 -10 -9 -10 -9 0 -16 -4 -16
-10 0 -5 -8 -10 -17 -10 -11 0 -14 -3 -7 -10 11 -11 72 7 99 30 17 14 16 15
-6 21 -23 7 -23 7 -2 8 12 1 25 -3 28 -9 9 -15 31 -12 50 6 9 9 19 14 22 10 4
-3 -2 -13 -13 -21 -18 -14 -18 -14 0 -15 18 0 45 26 46 44 0 8 -35 4 -79 -10
-17 -5 -22 -4 -17 5 4 6 11 9 16 6 5 -3 11 -1 15 5 3 5 21 10 39 10 19 0 44 9
57 19 30 24 23 32 -11 14z"/>
<path d="M6254 1467 c-7 -20 3 -37 22 -37 18 0 17 10 -1 34 -13 17 -15 17 -21
3z"/>
<path d="M6240 1392 c0 -16 9 -37 20 -47 24 -22 19 -31 -9 -16 -16 9 -28 8
-52 -5 -31 -15 -31 -16 -13 -34 11 -11 42 -24 69 -30 28 -7 70 -18 95 -26 25
-8 50 -14 57 -14 7 0 -7 38 -34 90 -41 82 -48 90 -74 90 -16 0 -29 5 -29 10 0
6 -7 10 -15 10 -10 0 -15 -10 -15 -28z"/>
<path d="M5975 1390 c-16 -7 -17 -9 -3 -9 9 -1 20 4 23 9 7 11 7 11 -20 0z"/>
<path d="M5908 1353 c7 -3 16 -2 19 1 4 3 -2 6 -13 5 -11 0 -14 -3 -6 -6z"/>
<path d="M6120 1340 c0 -5 6 -10 14 -10 8 0 18 5 21 10 3 6 -3 10 -14 10 -12
0 -21 -4 -21 -10z"/>
<path d="M3940 990 c0 -5 5 -10 11 -10 5 0 7 5 4 10 -3 6 -8 10 -11 10 -2 0
-4 -4 -4 -10z"/>
<path d="M3942 920 c-17 -27 -15 -35 4 -16 8 9 14 21 12 26 -2 6 -9 1 -16 -10z"/>
<path d="M3562 789 c-17 -27 -15 -47 7 -59 38 -20 55 -6 27 22 -9 10 -11 20
-5 30 13 24 -15 30 -29 7z"/>
<path d="M3690 760 c0 -5 5 -10 11 -10 5 0 7 5 4 10 -3 6 -8 10 -11 10 -2 0
-4 -4 -4 -10z"/>
<path d="M3740 710 c12 -16 26 -30 31 -30 11 0 4 13 -20 42 -25 30 -34 20 -11
-12z"/>
<path d="M3669 563 c-13 -16 -12 -17 4 -4 16 13 21 21 13 21 -2 0 -10 -8 -17
-17z"/>
<path d="M3860 139 c-19 -10 -29 -18 -22 -19 6 0 12 -7 12 -16 0 -13 3 -14 15
-4 8 7 12 17 9 22 -4 6 10 9 32 8 56 -3 64 -1 64 12 0 6 -3 8 -7 5 -3 -4 -12
-2 -19 4 -8 7 -14 7 -19 -1 -4 -7 -11 -7 -18 -2 -7 5 -26 2 -47 -9z"/>
<path d="M3761 76 c-14 -15 -19 -26 -12 -31 6 -3 11 1 11 9 0 15 11 20 37 17
6 -1 15 4 19 10 5 8 3 9 -6 4 -7 -4 -15 -2 -19 4 -5 7 -15 3 -30 -13z"/>
<path d="M3612 30 c0 -14 2 -19 5 -12 2 6 2 18 0 25 -3 6 -5 1 -5 -13z"/>
<path d="M3690 10 c0 -5 7 -10 16 -10 8 0 12 5 9 10 -3 6 -10 10 -16 10 -5 0
-9 -4 -9 -10z"/>
<path d="M3755 10 c-3 -5 1 -10 10 -10 9 0 13 5 10 10 -3 6 -8 10 -10 10 -2 0
-7 -4 -10 -10z"/>
</g>
</svg>
